<svg xmlns="http://www.w3.org/2000/svg" viewBox="0 0 512 512" style="height: 512px; width: 512px;"><defs><linearGradient x1="0" x2="1" y1="0" y2="1" id="delapouite-water-bottle-gradient-0"><stop offset="0%" stop-color="#040101" stop-opacity="1"></stop><stop offset="100%" stop-color="#b32020" stop-opacity="1"></stop></linearGradient></defs><path d="M0 0h512v512H0z" fill="url(#delapouite-water-bottle-gradient-0)"></path><g class="" transform="translate(0,0)" style=""><path d="M121.4 33v30h78.1V33zm11 48c-16.4 16.58-42.95 46.2-42.95 71v39H231.5v-39c0-24.8-26.5-54.42-43-71zM89.45 209v16H231.5v-16zm0 34v16H231.5v-16zm0 34v16H231.5v-16zm0 34v170.2c43.05 12.7 98.95 12.7 142.05 0V311zm224.85 34l14.3 142H345l-6.9-118.5 18-1L363 487h45.3l14.3-142z" fill="#fff" fill-opacity="1"></path></g></svg>